<svg width="128" height="128" viewBox="0 0 128 128" xmlns="http://www.w3.org/2000/svg">
  <defs>
    <linearGradient id="tile" x1="0" y1="0" x2="1" y2="1">
      <stop offset="0" stop-color="#0f766e"/>
      <stop offset="1" stop-color="#164e63"/>
    </linearGradient>
    <linearGradient id="paper" x1="0" y1="0" x2="0" y2="1">
      <stop offset="0" stop-color="#fffdf8"/>
      <stop offset="1" stop-color="#e7eefc"/>
    </linearGradient>
  </defs>

  <rect x="8" y="8" width="112" height="112" rx="24" fill="url(#tile)"/>
  <rect x="10" y="10" width="108" height="108" rx="22" fill="none" stroke="#ffffff" stroke-opacity="0.16" stroke-width="2"/>

  <path d="M34 42c0-4.4 3.6-8 8-8h22l10 10h12c4.4 0 8 3.6 8 8v34c0 4.4-3.6 8-8 8H42c-4.4 0-8-3.6-8-8V42z" fill="#0b4f4a" opacity="0.55"/>
  <path d="M34 50c0-4.4 3.6-8 8-8h22l10 10h12c4.4 0 8 3.6 8 8v28c0 4.4-3.6 8-8 8H42c-4.4 0-8-3.6-8-8V50z" fill="url(#paper)"/>
  <path d="M42 42h22l10 10H42c-4.4 0-8 3.6-8 8V50c0-4.4 3.6-8 8-8z" fill="#dff3ef"/>

  <g fill="none" stroke="#0f766e" stroke-width="7" stroke-linecap="round" stroke-linejoin="round">
    <path d="M64 57v24"/>
    <path d="M52 70l12 12 12-12"/>
  </g>
  <path d="M48 91h32" stroke="#2563eb" stroke-width="7" stroke-linecap="round"/>
</svg>
